<svg xmlns="http://www.w3.org/2000/svg" xmlns:xlink="http://www.w3.org/1999/xlink" width="42" zoomAndPan="magnify" viewBox="0 0 31.5 30.000001" height="40" preserveAspectRatio="xMidYMid meet" version="1.0"><defs><clipPath id="f78d3662c5"><path d="M 17 0.0820312 L 22 0.0820312 L 22 27 L 17 27 Z M 17 0.0820312 " clip-rule="nonzero"/></clipPath><clipPath id="d640cbaa02"><path d="M 1.71875 2 L 25 2 L 25 29.03125 L 1.71875 29.03125 Z M 1.71875 2 " clip-rule="nonzero"/></clipPath><clipPath id="d5333a9e09"><path d="M 2 2 L 29.296875 2 L 29.296875 25 L 2 25 Z M 2 2 " clip-rule="nonzero"/></clipPath></defs><path fill="#00dd9b" d="M 9.148438 16.539062 L 9.148438 26.738281 L 6.140625 25 L 5.484375 24.625 L 5.160156 24.433594 L 5.160156 16.539062 Z M 9.148438 16.539062 " fill-opacity="1" fill-rule="nonzero"/><path fill="#00dd9b" d="M 11.257812 10.113281 L 15.25 10.113281 L 15.25 27.804688 L 11.257812 27.804688 Z M 11.257812 10.113281 " fill-opacity="1" fill-rule="nonzero"/><g clip-path="url(#f78d3662c5)"><path fill="#00dd9b" d="M 21.34375 0.0820312 L 21.34375 24.363281 L 19.347656 25.550781 L 17.351562 26.742188 L 17.351562 0.0820312 Z M 21.34375 0.0820312 " fill-opacity="1" fill-rule="nonzero"/></g><g clip-path="url(#d640cbaa02)"><path fill="#00b37e" d="M 24.488281 9.019531 L 24.417969 8.980469 L 23.886719 8.671875 C 23.691406 8.949219 23.46875 9.246094 23.234375 9.558594 L 23.667969 9.8125 L 23.667969 13.863281 C 24.058594 13.441406 24.425781 13.027344 24.761719 12.632812 L 24.761719 9.5 C 24.761719 9.296875 24.65625 9.117188 24.488281 9.019531 Z M 24.105469 14.300781 C 23.960938 14.449219 23.816406 14.605469 23.667969 14.761719 L 23.667969 21.835938 L 21.917969 22.84375 L 21.34375 23.171875 L 17.351562 25.476562 L 16.777344 25.804688 L 15.25 26.691406 L 13.335938 27.796875 L 13.257812 27.84375 L 13.183594 27.796875 L 11.261719 26.6875 L 9.15625 25.46875 L 7.582031 24.566406 L 6.9375 24.195312 L 6.3125 23.839844 L 5.160156 23.171875 L 4.566406 22.824219 L 3.917969 22.449219 L 3.285156 22.085938 L 2.839844 21.828125 L 2.839844 9.808594 L 13.253906 3.800781 L 16.777344 5.835938 L 16.777344 4.570312 L 13.527344 2.695312 C 13.359375 2.59375 13.148438 2.59375 12.980469 2.695312 L 2.019531 9.019531 C 1.851562 9.117188 1.746094 9.296875 1.746094 9.496094 L 1.746094 22.148438 C 1.746094 22.34375 1.851562 22.523438 2.019531 22.621094 L 2.441406 22.867188 L 3.09375 23.246094 L 4.734375 24.191406 L 4.847656 24.253906 L 5.160156 24.433594 L 5.484375 24.621094 L 6.140625 24.996094 L 9.148438 26.738281 L 12.980469 28.949219 C 13.066406 28.996094 13.160156 29.023438 13.253906 29.023438 C 13.347656 29.023438 13.445312 29 13.527344 28.949219 L 17.351562 26.742188 L 19.679688 25.402344 L 21.339844 24.441406 L 21.914062 24.109375 L 24.484375 22.628906 C 24.652344 22.53125 24.753906 22.351562 24.753906 22.152344 L 24.753906 13.574219 C 24.550781 13.8125 24.332031 14.054688 24.105469 14.300781 Z M 24.105469 14.300781 " fill-opacity="1" fill-rule="nonzero"/></g><g clip-path="url(#d5333a9e09)"><path fill="#00b37e" d="M 29.269531 9.019531 L 27.847656 8.257812 C 27.609375 8.644531 26.660156 10.375 24.761719 12.625 C 24.425781 13.027344 24.058594 13.4375 23.667969 13.859375 C 22.984375 14.59375 22.214844 15.359375 21.34375 16.140625 C 20.195312 17.171875 18.867188 18.222656 17.351562 19.242188 C 16.6875 19.6875 15.984375 20.132812 15.246094 20.5625 C 14.015625 21.273438 12.691406 21.957031 11.25 22.589844 C 10.574219 22.882812 9.875 23.171875 9.144531 23.4375 C 8.433594 23.707031 7.691406 23.960938 6.925781 24.195312 C 6.453125 24.347656 5.972656 24.488281 5.480469 24.625 L 5.15625 24.441406 L 4.84375 24.261719 L 4.726562 24.195312 L 3.089844 23.253906 L 2.441406 22.867188 C 2.511719 22.847656 2.585938 22.832031 2.65625 22.808594 C 3.082031 22.691406 3.5 22.578125 3.917969 22.453125 C 4.339844 22.328125 4.757812 22.199219 5.160156 22.0625 C 6.578125 21.59375 7.90625 21.070312 9.15625 20.511719 C 9.882812 20.179688 10.585938 19.839844 11.261719 19.484375 C 12.722656 18.722656 14.046875 17.910156 15.257812 17.082031 C 16.003906 16.566406 16.703125 16.042969 17.363281 15.519531 C 18.949219 14.253906 20.269531 12.980469 21.355469 11.796875 C 22.09375 10.992188 22.71875 10.242188 23.242188 9.558594 C 23.480469 9.246094 23.703125 8.949219 23.898438 8.671875 C 24.40625 7.960938 24.785156 7.363281 25.039062 6.949219 C 25.074219 6.894531 25.101562 6.84375 25.132812 6.792969 L 24.617188 6.515625 L 24.199219 6.292969 L 23.585938 5.964844 L 23.753906 5.859375 L 28.660156 2.816406 L 29.0625 2.566406 L 29.085938 3.261719 Z M 29.269531 9.019531 " fill-opacity="1" fill-rule="nonzero"/></g></svg>